<svg style="clip-rule:evenodd;fill-rule:evenodd;image-rendering:optimizeQuality;shape-rendering:geometricPrecision;text-rendering:geometricPrecision" xml:space="preserve" width="9.912" height="7.362" xmlns="http://www.w3.org/2000/svg">
  <path d="M7.362 2.755a.303.303 0 0 1-.048-.003.285.285 0 0 1-.008.036.285.285 0 0 1 .056-.005v.569a.285.285 0 0 1-.063-.007.266.266 0 0 1-.02.081.267.267 0 0 1 .083-.013v.535a.267.267 0 0 1-.08-.012v.002c0 .05-.014.097-.04.136a.25.25 0 0 1 .12-.03v.5a.25.25 0 0 1-.098-.02.233.233 0 1 1-.462-.007.25.25 0 0 1-.21.008.233.233 0 1 1-.462-.007.25.25 0 0 1-.21.007.233.233 0 1 1-.462-.007.25.25 0 0 1-.21.007.233.233 0 1 1-.462-.007.25.25 0 0 1-.209.007.233.233 0 1 1-.462-.007.25.25 0 0 1-.21.007.233.233 0 1 1-.462-.007.25.25 0 0 1-.21.007.233.233 0 1 1-.462-.007.25.25 0 0 1-.21.007.233.233 0 1 1-.462-.007.25.25 0 0 1-.209.007.233.233 0 1 1-.462-.007.25.25 0 0 1-.21.007.233.233 0 1 1-.462-.007.25.25 0 0 1-.21.007.233.233 0 1 1-.464.006.25.25 0 0 1-.082.013v-.5a.25.25 0 0 1 .1.02.249.249 0 0 1-.035-.124.268.268 0 0 1-.065.008v-.535c.023 0 .045.003.066.009a.266.266 0 0 1-.017-.075.287.287 0 0 1-.05.005v-.57c.015 0 .028.002.042.004a.285.285 0 0 1-.007-.033.304.304 0 0 1-.034.002V0H7.36v2.755zm-.297-.358a.303.303 0 0 1-.08-.002.302.302 0 0 1 .005.034.286.286 0 0 1 .071-.001c0-.01.002-.02.004-.03zm.023.593a.286.286 0 0 1-.125-.003c.007.024.01.05.011.076a.268.268 0 0 1 .103-.002c0-.025.004-.048.01-.071zm.026.589a.267.267 0 0 1-.18-.006.266.266 0 0 1 .022.126.25.25 0 0 1 .139-.004.273.273 0 0 1 .02-.116zm.038.579a.249.249 0 0 1-.263-.015.249.249 0 0 1 .047.196.232.232 0 0 1 .178-.006.252.252 0 0 1 .038-.175zm.21.983a.232.232 0 0 1-.121-.034.216.216 0 1 1-.413-.012.232.232 0 0 1-.26.012.216.216 0 1 1-.412-.012.232.232 0 0 1-.259.012.216.216 0 1 1-.412-.012.232.232 0 0 1-.26.012.216.216 0 1 1-.412-.012.232.232 0 0 1-.26.012.216.216 0 1 1-.412-.012.232.232 0 0 1-.259.012.216.216 0 1 1-.413-.012.232.232 0 0 1-.259.012.216.216 0 1 1-.412-.012.232.232 0 0 1-.26.012.216.216 0 1 1-.412-.012.232.232 0 0 1-.26.012.216.216 0 1 1-.412-.012.232.232 0 0 1-.259.012.216.216 0 1 1-.412-.012.232.232 0 0 1-.26.012.216.216 0 1 1-.418.009A.232.232 0 0 1 0 5.14v-.466a.233.233 0 0 1 .225.294.215.215 0 0 1 .197.008.233.233 0 1 1 .441.01.215.215 0 0 1 .23-.01.233.233 0 1 1 .442.01.215.215 0 0 1 .23-.01.233.233 0 1 1 .442.01.215.215 0 0 1 .23-.01.233.233 0 1 1 .441.01.215.215 0 0 1 .23-.01.233.233 0 1 1 .442.01.215.215 0 0 1 .23-.01.233.233 0 1 1 .442.01.215.215 0 0 1 .23-.01.233.233 0 1 1 .442.01.215.215 0 0 1 .23-.01.233.233 0 1 1 .441.01.215.215 0 0 1 .23-.01.233.233 0 1 1 .442.01.215.215 0 0 1 .23-.01.233.233 0 1 1 .442.01.215.215 0 0 1 .23-.01.233.233 0 0 1 .223-.302v.466Zm0 .596a.216.216 0 0 1 0-.432zm0 .596a.199.199 0 0 1 0-.397v.397zm0 .597a.182.182 0 0 1 0-.364zm0 .596a.165.165 0 0 1 0-.329v.329zm0 .596a.147.147 0 0 1 0-.294zm0 .597a.13.13 0 0 1 0-.26zm0 .596a.113.113 0 0 1 0-.226zm0 .596a.096.096 0 0 1 0-.192v.192zM.3 2.427a.289.289 0 0 1 .044 0c0-.01.002-.02.004-.03a.306.306 0 0 1-.051.001l.003.029zm-.016.632a.268.268 0 0 1 .076.002c0-.025.004-.048.01-.071a.286.286 0 0 1-.096.002c.006.022.01.044.01.067zm-.017.633a.251.251 0 0 1 .11.003.273.273 0 0 1 .02-.116.267.267 0 0 1-.148.004.267.267 0 0 1 .018.11zm-.02.636a.233.233 0 0 1 .15.005.252.252 0 0 1 .038-.175.249.249 0 0 1-.22.01.249.249 0 0 1 .033.16zM0 5.305a.216.216 0 0 1 .19.319.199.199 0 1 1-.05.062.215.215 0 0 1-.14.051v-.432zm0 .63a.199.199 0 0 1 0 .398v-.397Zm0 .631a.182.182 0 0 1 0 .364zm0 .631a.165.165 0 0 1 0 .33v-.33Zm0 .63a.147.147 0 0 1 0 .295zm0 .631a.13.13 0 0 1 0 .26zm0 .63a.113.113 0 0 1 0 .227zm0 .631a.096.096 0 0 1 0 .192V9.72zm.59-6.93a.286.286 0 0 1 .124.003.284.284 0 0 1-.009-.043.303.303 0 0 1-.108.003.282.282 0 0 1-.008.036Zm-.027.637a.267.267 0 0 1 .18.006.266.266 0 0 1-.023-.09.285.285 0 0 1-.138.003.266.266 0 0 1-.02.081Zm-.038.648a.249.249 0 0 1 .263.016.249.249 0 0 1-.051-.158.267.267 0 0 1-.172.004v.002c0 .05-.014.097-.04.136zM.315 6.21a.182.182 0 1 1 0 .363.182.182 0 0 1 0-.363zm0 .63a.165.165 0 1 1 0 .33.165.165 0 0 1 0-.33zm0 .631a.147.147 0 1 1 0 .295.147.147 0 0 1 0-.295zm0 .63a.13.13 0 1 1 0 .261.13.13 0 0 1 0-.26zm0 .631a.113.113 0 1 1 0 .227.113.113 0 0 1 0-.227zm0 .631a.096.096 0 1 1 0 .192.096.096 0 0 1 0-.192zM.69 2.156h.001zm.255.274a.286.286 0 0 1 .07-.002l.005-.03a.306.306 0 0 1-.08-.003.303.303 0 0 1 .005.035zm-.016.634a.268.268 0 0 1 .103-.003c0-.025.004-.048.01-.071a.286.286 0 0 1-.125-.003c.007.024.011.05.012.077zm-.018.635a.25.25 0 0 1 .138-.004.273.273 0 0 1 .02-.116.267.267 0 0 1-.18-.006.266.266 0 0 1 .022.126zm-.02.64a.232.232 0 0 1 .178-.006.252.252 0 0 1 .037-.175.249.249 0 0 1-.263-.015.249.249 0 0 1 .048.196zm-.247.966a.216.216 0 1 1 0 .432.216.216 0 0 1 0-.432zm0 .63a.199.199 0 1 1 0 .399.199.199 0 0 1 0-.398zm0 .632a.182.182 0 1 1 0 .363.182.182 0 0 1 0-.363zm0 .63a.165.165 0 1 1 0 .33.165.165 0 0 1 0-.33zm0 .63a.147.147 0 1 1 0 .296.147.147 0 0 1 0-.295zm0 .631a.13.13 0 1 1 0 .26.13.13 0 0 1 0-.26zm0 .63a.113.113 0 1 1 0 .227.113.113 0 0 1 0-.226zm0 .632a.096.096 0 1 1 0 .192.096.096 0 0 1 0-.192zm.617-6.932a.286.286 0 0 1 .125.004.284.284 0 0 1-.01-.043.303.303 0 0 1-.107.003.283.283 0 0 1-.008.036zm-.027.638a.267.267 0 0 1 .18.006.266.266 0 0 1-.022-.09.284.284 0 0 1-.138.003.266.266 0 0 1-.02.081zm-.037.648a.249.249 0 0 1 .263.016.249.249 0 0 1-.051-.158.267.267 0 0 1-.172.004v.002c0 .05-.015.097-.04.136zM.987 5.58a.199.199 0 1 1 0 .397.199.199 0 0 1 0-.397zm0 .63a.182.182 0 1 1 0 .363.182.182 0 0 1 0-.363zm0 .63a.165.165 0 1 1 0 .33.165.165 0 0 1 0-.33zm0 .631a.147.147 0 1 1 0 .295.147.147 0 0 1 0-.295zm0 .63a.13.13 0 1 1 0 .261.13.13 0 0 1 0-.26zm0 .632a.113.113 0 1 1 0 .226.113.113 0 0 1 0-.226zm0 .63a.096.096 0 1 1 0 .192.096.096 0 0 1 0-.192zm.375-7.207zm.255.274a.286.286 0 0 1 .07-.002l.005-.03a.306.306 0 0 1-.08-.002.304.304 0 0 1 .005.034zm-.017.634a.268.268 0 0 1 .103-.003c.001-.025.005-.048.011-.07a.286.286 0 0 1-.125-.004c.007.024.011.05.011.077zm-.017.636a.25.25 0 0 1 .138-.004.273.273 0 0 1 .02-.117.267.267 0 0 1-.18-.006.266.266 0 0 1 .022.127zm-.02.64a.232.232 0 0 1 .178-.007.252.252 0 0 1 .037-.175.249.249 0 0 1-.263-.015.249.249 0 0 1 .047.196zm-.247.965a.216.216 0 1 1 0 .432.216.216 0 0 1 0-.432zm0 .631a.199.199 0 1 1 0 .398.199.199 0 0 1 0-.398zm0 .63a.182.182 0 1 1 0 .364.182.182 0 0 1 0-.363zm0 .631a.165.165 0 1 1 0 .33.165.165 0 0 1 0-.33zm0 .63a.147.147 0 1 1 0 .296.147.147 0 0 1 0-.295zm0 .631a.13.13 0 1 1 0 .26.13.13 0 0 1 0-.26zm0 .631a.113.113 0 1 1 0 .226.113.113 0 0 1 0-.226zm0 .63a.096.096 0 1 1 0 .193.096.096 0 0 1 0-.192zm.617-6.93a.286.286 0 0 1 .125.003.284.284 0 0 1-.01-.043.303.303 0 0 1-.108.003.283.283 0 0 1-.007.036Zm-.027.637a.267.267 0 0 1 .18.006.266.266 0 0 1-.022-.09.284.284 0 0 1-.139.003.266.266 0 0 1-.019.081zm-.038.648a.249.249 0 0 1 .264.016.249.249 0 0 1-.052-.158.267.267 0 0 1-.171.004v.002c0 .05-.015.097-.04.136zm-.21 1.506a.199.199 0 1 1 0 .397.199.199 0 0 1 0-.397zm0 .63a.182.182 0 1 1 0 .364.182.182 0 0 1 0-.364zm0 .63a.165.165 0 1 1 0 .33.165.165 0 0 1 0-.33zm0 .631a.147.147 0 1 1 0 .295.147.147 0 0 1 0-.295zm0 .631a.13.13 0 1 1 0 .26.13.13 0 0 1 0-.26zm0 .63a.113.113 0 1 1 0 .227.113.113 0 0 1 0-.226zm0 .631a.096.096 0 1 1 0 .192.096.096 0 0 1 0-.192zm.376-7.207zm.254.274a.286.286 0 0 1 .071-.002.3.3 0 0 1 .004-.03.306.306 0 0 1-.08-.002.304.304 0 0 1 .005.034zm-.016.634a.268.268 0 0 1 .103-.003c0-.025.004-.048.01-.07a.286.286 0 0 1-.124-.004c.007.024.01.05.011.077zm-.018.636a.25.25 0 0 1 .139-.004.273.273 0 0 1 .02-.117.267.267 0 0 1-.18-.006.266.266 0 0 1 .021.127zm-.02.64a.232.232 0 0 1 .178-.007.252.252 0 0 1 .038-.175.249.249 0 0 1-.263-.015.249.249 0 0 1 .047.196zm-.246.965a.216.216 0 1 1 0 .432.216.216 0 0 1 0-.432zm0 .631a.199.199 0 1 1 0 .398.199.199 0 0 1 0-.398zm0 .63a.182.182 0 1 1 0 .364.182.182 0 0 1 0-.363zm0 .631a.165.165 0 1 1 0 .33.165.165 0 0 1 0-.33zm0 .63a.147.147 0 1 1 0 .296.147.147 0 0 1 0-.295zm0 .631a.13.13 0 1 1 0 .261.13.13 0 0 1 0-.26zm0 .631a.113.113 0 1 1 0 .226.113.113 0 0 1 0-.226zm0 .63a.096.096 0 1 1 0 .193.096.096 0 0 1 0-.192zm.616-6.93a.286.286 0 0 1 .125.003.284.284 0 0 1-.009-.042.303.303 0 0 1-.108.002.283.283 0 0 1-.008.036zm-.026.637a.267.267 0 0 1 .18.006.266.266 0 0 1-.023-.09.284.284 0 0 1-.138.003.266.266 0 0 1-.02.081Zm-.038.649a.249.249 0 0 1 .263.015.249.249 0 0 1-.05-.158.267.267 0 0 1-.172.004v.002c0 .05-.015.097-.04.137zM2.33 5.58a.199.199 0 1 1 0 .397.199.199 0 0 1 0-.397zm0 .63a.182.182 0 1 1 0 .364.182.182 0 0 1 0-.364zm0 .63a.165.165 0 1 1 0 .33.165.165 0 0 1 0-.33zm0 .631a.147.147 0 1 1 0 .295.147.147 0 0 1 0-.295zm0 .631a.13.13 0 1 1 0 .26.13.13 0 0 1 0-.26zm0 .63a.113.113 0 1 1 0 .227.113.113 0 0 1 0-.226zm0 .631a.096.096 0 1 1 0 .192.096.096 0 0 1 0-.192zm.376-7.207zm.254.274a.286.286 0 0 1 .07-.002.3.3 0 0 1 .005-.03.306.306 0 0 1-.08-.002.304.304 0 0 1 .005.034zm-.016.634a.268.268 0 0 1 .103-.003c0-.024.004-.048.01-.07a.286.286 0 0 1-.125-.004c.008.024.012.05.012.077zm-.018.636a.25.25 0 0 1 .138-.004.273.273 0 0 1 .02-.117.267.267 0 0 1-.18-.006.266.266 0 0 1 .022.127zm-.02.64a.232.232 0 0 1 .178-.007.252.252 0 0 1 .038-.175.249.249 0 0 1-.264-.015.249.249 0 0 1 .048.196zm-.247.966a.216.216 0 1 1 0 .431.216.216 0 0 1 0-.431zm0 .63a.199.199 0 1 1 0 .398.199.199 0 0 1 0-.398zm0 .63a.182.182 0 1 1 0 .364.182.182 0 0 1 0-.363zm0 .631a.165.165 0 1 1 0 .33.165.165 0 0 1 0-.33zm0 .63a.147.147 0 1 1 0 .296.147.147 0 0 1 0-.295zm0 .632a.13.13 0 1 1 0 .26.13.13 0 0 1 0-.26zm0 .63a.113.113 0 1 1 0 .226.113.113 0 0 1 0-.226zm0 .63a.096.096 0 1 1 0 .193.096.096 0 0 1 0-.192zm.617-6.93a.286.286 0 0 1 .125.003.284.284 0 0 1-.009-.042.303.303 0 0 1-.108.002.283.283 0 0 1-.008.037Zm-.027.638a.267.267 0 0 1 .18.005.266.266 0 0 1-.022-.09.284.284 0 0 1-.138.003.266.266 0 0 1-.02.082zm-.037.648a.249.249 0 0 1 .263.015.249.249 0 0 1-.051-.158.267.267 0 0 1-.172.005v.001c0 .05-.015.097-.04.137zm-.21 1.505a.199.199 0 1 1 0 .397.199.199 0 0 1 0-.397zm0 .63a.182.182 0 1 1 0 .364.182.182 0 0 1 0-.364zm0 .63a.165.165 0 1 1 0 .33.165.165 0 0 1 0-.33zm0 .631a.147.147 0 1 1 0 .295.147.147 0 0 1 0-.295zm0 .631a.13.13 0 1 1 0 .26.13.13 0 0 1 0-.26zm0 .63a.113.113 0 1 1 0 .227.113.113 0 0 1 0-.226zm0 .631a.096.096 0 1 1 0 .192.096.096 0 0 1 0-.192zm.375-7.207h.001zm.255.274a.286.286 0 0 1 .07-.002.3.3 0 0 1 .005-.03.306.306 0 0 1-.08-.002.304.304 0 0 1 .005.034zm-.016.634a.268.268 0 0 1 .103-.003c0-.024.004-.048.01-.07a.286.286 0 0 1-.125-.004c.007.024.011.05.012.077zm-.018.636a.25.25 0 0 1 .138-.004.273.273 0 0 1 .02-.117.267.267 0 0 1-.18-.006.266.266 0 0 1 .022.127zm-.02.64a.232.232 0 0 1 .178-.007.252.252 0 0 1 .037-.175.249.249 0 0 1-.263-.015.249.249 0 0 1 .047.196zm-.247.966a.216.216 0 1 1 0 .431.216.216 0 0 1 0-.431zm0 .63a.199.199 0 1 1 0 .398.199.199 0 0 1 0-.398zm0 .63a.182.182 0 1 1 0 .364.182.182 0 0 1 0-.363zm0 .631a.165.165 0 1 1 0 .33.165.165 0 0 1 0-.33zm0 .631a.147.147 0 1 1 0 .295.147.147 0 0 1 0-.295zm0 .63a.13.13 0 1 1 0 .261.13.13 0 0 1 0-.26zm0 .631a.113.113 0 1 1 0 .226.113.113 0 0 1 0-.226zm0 .63a.096.096 0 1 1 0 .193.096.096 0 0 1 0-.192zm.617-6.93a.286.286 0 0 1 .125.003.284.284 0 0 1-.01-.042.303.303 0 0 1-.108.002.283.283 0 0 1-.007.037zm-.027.638a.267.267 0 0 1 .18.005.266.266 0 0 1-.022-.09.284.284 0 0 1-.139.003.266.266 0 0 1-.019.082zm-.037.648a.249.249 0 0 1 .263.015.249.249 0 0 1-.051-.158.267.267 0 0 1-.172.005v.001c0 .05-.015.097-.04.137zm-.21 1.505a.199.199 0 1 1 0 .397.199.199 0 0 1 0-.397zm0 .63a.182.182 0 1 1 0 .364.182.182 0 0 1 0-.364zm0 .631a.165.165 0 1 1 0 .329.165.165 0 0 1 0-.329zm0 .63a.147.147 0 1 1 0 .295.147.147 0 0 1 0-.294zm0 .631a.13.13 0 1 1 0 .26.13.13 0 0 1 0-.26zm0 .63a.113.113 0 1 1 0 .227.113.113 0 0 1 0-.226zm0 .631a.096.096 0 1 1 0 .192.096.096 0 0 1 0-.192zm.375-7.207zm.255.274a.286.286 0 0 1 .07-.002l.004-.03a.306.306 0 0 1-.08-.002.304.304 0 0 1 .006.034zm-.017.634a.268.268 0 0 1 .103-.003c0-.024.005-.048.01-.07a.286.286 0 0 1-.124-.004c.007.024.011.05.011.077zM4.27 3.7a.25.25 0 0 1 .138-.004.273.273 0 0 1 .02-.117.267.267 0 0 1-.18-.005.266.266 0 0 1 .022.126zm-.02.64a.232.232 0 0 1 .177-.007.252.252 0 0 1 .038-.175.249.249 0 0 1-.263-.015.249.249 0 0 1 .047.196zm-.247.966a.216.216 0 1 1 0 .432.216.216 0 0 1 0-.432zm0 .63a.199.199 0 1 1 0 .398.199.199 0 0 1 0-.398zm0 .63a.182.182 0 1 1 0 .364.182.182 0 0 1 0-.363zm0 .631a.165.165 0 1 1 0 .33.165.165 0 0 1 0-.33zm0 .631a.147.147 0 1 1 0 .295.147.147 0 0 1 0-.295zm0 .63a.13.13 0 1 1 0 .261.13.13 0 0 1 0-.26zm0 .631a.113.113 0 1 1 0 .226.113.113 0 0 1 0-.226zm0 .63a.096.096 0 1 1 0 .193.096.096 0 0 1 0-.192zm.616-6.93a.286.286 0 0 1 .126.003.284.284 0 0 1-.01-.042.303.303 0 0 1-.108.002.283.283 0 0 1-.008.037zm-.026.638a.267.267 0 0 1 .18.005.266.266 0 0 1-.022-.09.285.285 0 0 1-.139.003.266.266 0 0 1-.02.082zm-.038.648a.249.249 0 0 1 .263.015.249.249 0 0 1-.05-.158.267.267 0 0 1-.172.005v.001c0 .05-.015.097-.04.137zm-.21 1.505a.199.199 0 1 1 0 .397.199.199 0 0 1 0-.397zm0 .63a.182.182 0 1 1 0 .364.182.182 0 0 1 0-.364zm0 .631a.165.165 0 1 1 0 .33.165.165 0 0 1 0-.33zm0 .63a.147.147 0 1 1 0 .295.147.147 0 0 1 0-.294zm0 .631a.13.13 0 1 1 0 .26.13.13 0 0 1 0-.26zm0 .63a.113.113 0 1 1 0 .227.113.113 0 0 1 0-.226zm0 .631a.096.096 0 1 1 0 .192.096.096 0 0 1 0-.192zm.376-7.207zm.254.274a.286.286 0 0 1 .07-.002l.005-.03a.306.306 0 0 1-.08-.002.304.304 0 0 1 .005.034zm-.016.634a.268.268 0 0 1 .103-.003c0-.024.004-.048.01-.07a.286.286 0 0 1-.124-.004c.007.025.01.05.011.077zm-.018.636a.25.25 0 0 1 .138-.004.273.273 0 0 1 .02-.117.267.267 0 0 1-.18-.005.266.266 0 0 1 .022.126zm-.02.64a.232.232 0 0 1 .178-.007.252.252 0 0 1 .038-.175.249.249 0 0 1-.263-.015.249.249 0 0 1 .047.197zm-.246.966a.216.216 0 1 1 0 .432.216.216 0 0 1 0-.432zm0 .63a.199.199 0 1 1 0 .398.199.199 0 0 1 0-.398zm0 .63a.182.182 0 1 1 0 .364.182.182 0 0 1 0-.363zm0 .631a.165.165 0 1 1 0 .33.165.165 0 0 1 0-.33zm0 .631a.147.147 0 1 1 0 .295.147.147 0 0 1 0-.295zm0 .63a.13.13 0 1 1 0 .261.13.13 0 0 1 0-.26zm0 .631a.113.113 0 1 1 0 .227.113.113 0 0 1 0-.227zm0 .63a.096.096 0 1 1 0 .193.096.096 0 0 1 0-.192zm.616-6.93a.286.286 0 0 1 .125.003.284.284 0 0 1-.009-.042.303.303 0 0 1-.108.002.283.283 0 0 1-.008.037zm-.026.638a.267.267 0 0 1 .18.005.266.266 0 0 1-.023-.09.284.284 0 0 1-.138.003.266.266 0 0 1-.02.082Zm-.038.648a.249.249 0 0 1 .263.015.249.249 0 0 1-.051-.158.267.267 0 0 1-.171.005v.001c0 .05-.015.098-.04.137zm-.21 1.505a.199.199 0 1 1 0 .398.199.199 0 0 1 0-.398zm0 .63a.182.182 0 1 1 0 .364.182.182 0 0 1 0-.364zm0 .631a.165.165 0 1 1 0 .33.165.165 0 0 1 0-.33zm0 .63a.147.147 0 1 1 0 .295.147.147 0 0 1 0-.294zm0 .631a.13.13 0 1 1 0 .26.13.13 0 0 1 0-.26zm0 .63a.113.113 0 1 1 0 .227.113.113 0 0 1 0-.226zm0 .631a.096.096 0 1 1 0 .192.096.096 0 0 1 0-.192zm.376-7.207zm.254.274a.286.286 0 0 1 .07-.002l.005-.03a.306.306 0 0 1-.08-.002.304.304 0 0 1 .005.034zm-.016.634a.268.268 0 0 1 .103-.003c0-.024.004-.048.01-.07a.286.286 0 0 1-.125-.004c.007.025.011.05.012.077zm-.018.636a.25.25 0 0 1 .138-.004.273.273 0 0 1 .02-.117.267.267 0 0 1-.18-.005.266.266 0 0 1 .022.126zm-.02.64a.232.232 0 0 1 .178-.006.252.252 0 0 1 .037-.176.249.249 0 0 1-.263-.015.249.249 0 0 1 .048.197zm-.247.966a.216.216 0 1 1 0 .432.216.216 0 0 1 0-.432zm0 .63a.199.199 0 1 1 0 .398.199.199 0 0 1 0-.398zm0 .631a.182.182 0 1 1 0 .363.182.182 0 0 1 0-.363zm0 .63a.165.165 0 1 1 0 .33.165.165 0 0 1 0-.33zm0 .631a.147.147 0 1 1 0 .295.147.147 0 0 1 0-.295zm0 .63a.13.13 0 1 1 0 .261.13.13 0 0 1 0-.26zm0 .631a.113.113 0 1 1 0 .227.113.113 0 0 1 0-.227zm0 .63a.096.096 0 1 1 0 .193.096.096 0 0 1 0-.192zm.617-6.93a.286.286 0 0 1 .125.003.284.284 0 0 1-.009-.042.303.303 0 0 1-.108.002.283.283 0 0 1-.008.037zm-.027.638a.267.267 0 0 1 .18.006.266.266 0 0 1-.022-.091.284.284 0 0 1-.138.003.266.266 0 0 1-.02.082zm-.037.648a.249.249 0 0 1 .263.015.249.249 0 0 1-.051-.158.267.267 0 0 1-.172.005v.001c0 .05-.015.098-.04.137zm-.21 1.505a.199.199 0 1 1 0 .398.199.199 0 0 1 0-.398zm0 .63a.182.182 0 1 1 0 .364.182.182 0 0 1 0-.363zm0 .631a.165.165 0 1 1 0 .33.165.165 0 0 1 0-.33zm0 .63a.147.147 0 1 1 0 .296.147.147 0 0 1 0-.295zm0 .631a.13.13 0 1 1 0 .26.13.13 0 0 1 0-.26zm0 .63a.113.113 0 1 1 0 .227.113.113 0 0 1 0-.226zm0 .632a.096.096 0 1 1 0 .192.096.096 0 0 1 0-.192zm.375-7.208zm.255.274a.286.286 0 0 1 .07-.002.3.3 0 0 1 .005-.03.306.306 0 0 1-.08-.002.304.304 0 0 1 .005.034zm-.016.634a.268.268 0 0 1 .102-.003c.001-.024.005-.048.011-.07a.286.286 0 0 1-.125-.004c.007.025.011.05.012.077zm-.018.636a.25.25 0 0 1 .138-.004.273.273 0 0 1 .02-.117.267.267 0 0 1-.18-.005.266.266 0 0 1 .022.126zm-.02.64a.232.232 0 0 1 .178-.006.252.252 0 0 1 .037-.176.249.249 0 0 1-.263-.015.249.249 0 0 1 .047.197zm-.247.966a.216.216 0 1 1 0 .432.216.216 0 0 1 0-.432zm0 .63a.199.199 0 1 1 0 .398.199.199 0 0 1 0-.398zm0 .631a.182.182 0 1 1 0 .363.182.182 0 0 1 0-.363zm0 .63a.165.165 0 1 1 0 .33.165.165 0 0 1 0-.33zm0 .631a.147.147 0 1 1 0 .295.147.147 0 0 1 0-.295zm0 .63a.13.13 0 1 1 0 .261.13.13 0 0 1 0-.26zm0 .631a.113.113 0 1 1 0 .227.113.113 0 0 1 0-.227zm0 .631a.096.096 0 1 1 0 .192.096.096 0 0 1 0-.192zm.617-6.931a.286.286 0 0 1 .125.003.284.284 0 0 1-.01-.042.303.303 0 0 1-.108.002.283.283 0 0 1-.007.037zm-.027.638a.267.267 0 0 1 .18.006.266.266 0 0 1-.022-.09.284.284 0 0 1-.139.002.266.266 0 0 1-.019.082zm-.038.648a.249.249 0 0 1 .264.015.249.249 0 0 1-.052-.158.267.267 0 0 1-.171.005v.001c0 .05-.015.098-.04.137zM6.36 5.58a.199.199 0 1 1 0 .398.199.199 0 0 1 0-.398zm0 .63a.182.182 0 1 1 0 .364.182.182 0 0 1 0-.363zm0 .631a.165.165 0 1 1 0 .33.165.165 0 0 1 0-.33zm0 .63a.147.147 0 1 1 0 .296.147.147 0 0 1 0-.295zm0 .631a.13.13 0 1 1 0 .26.13.13 0 0 1 0-.26zm0 .631a.113.113 0 1 1 0 .226.113.113 0 0 1 0-.226zm0 .63a.096.096 0 1 1 0 .193.096.096 0 0 1 0-.192zm.376-7.207zm-.046 3.15a.216.216 0 1 1 0 .432.216.216 0 0 1 0-.432zm0 .63a.199.199 0 1 1 0 .398.199.199 0 0 1 0-.398zm0 .631a.182.182 0 1 1 0 .363.182.182 0 0 1 0-.363zm0 .63a.165.165 0 1 1 0 .33.165.165 0 0 1 0-.33zm0 .631a.147.147 0 1 1 0 .295.147.147 0 0 1 0-.295zm0 .63a.13.13 0 1 1 0 .261.13.13 0 0 1 0-.26zm0 .631a.113.113 0 1 1 0 .227.113.113 0 0 1 0-.227zm.343-3.509a.199.199 0 1 1 0 .398.199.199 0 0 1 0-.398zm0 .63a.182.182 0 1 1 0 .364.182.182 0 0 1 0-.363zm0 .631a.165.165 0 1 1 0 .33.165.165 0 0 1 0-.33zm0 .63a.147.147 0 1 1 0 .296.147.147 0 0 1 0-.295zm0 .631a.13.13 0 1 1 0 .261.13.13 0 0 1 0-.26zm0 .631a.113.113 0 1 1 0 .226.113.113 0 0 1 0-.226zm0 .63a.096.096 0 1 1 0 .193.096.096 0 0 1 0-.192zm-.343.357a.096.096 0 1 1 0 .192.096.096 0 0 1 0-.192z" style="fill:#000" transform="rotate(-90 3.68 3.68)"/>
</svg>
